<svg width="280" height="211" viewBox="0 0 280 211" fill="none" xmlns="http://www.w3.org/2000/svg">
<path fill-rule="evenodd" clip-rule="evenodd" d="M226.39 193.312L278.815 31.6286C282.928 18.952 275.99 5.30918 263.339 1.19371C250.689 -2.92176 237.075 4.02501 232.968 16.7016L180.543 178.379C176.43 191.056 183.368 204.699 196.018 208.814C208.668 212.936 222.283 205.989 226.39 193.312Z" fill="url(#paint0_linear_1584_14573)"/>
<path fill-rule="evenodd" clip-rule="evenodd" d="M226.39 193.312L278.815 31.6286C282.928 18.952 275.99 5.30918 263.339 1.19371C250.689 -2.92176 237.075 4.02501 232.968 16.7016L180.543 178.379C176.43 191.056 183.368 204.699 196.018 208.814C208.668 212.936 222.283 205.989 226.39 193.312Z" fill="url(#paint1_linear_1584_14573)"/>
<path fill-rule="evenodd" clip-rule="evenodd" d="M226.39 193.312L278.815 31.6286C282.928 18.952 275.99 5.30918 263.339 1.19371C250.689 -2.92176 237.075 4.02501 232.968 16.7016L180.543 178.379C176.43 191.056 183.368 204.699 196.018 208.814C208.668 212.936 222.283 205.989 226.39 193.312Z" fill="url(#paint2_linear_1584_14573)" fill-opacity="0.8"/>
<path fill-rule="evenodd" clip-rule="evenodd" d="M226.39 193.312L278.815 31.6286C282.928 18.952 275.99 5.30918 263.339 1.19371C250.689 -2.92176 237.075 4.02501 232.968 16.7016L180.543 178.379C176.43 191.056 183.368 204.699 196.018 208.814C208.668 212.936 222.283 205.989 226.39 193.312Z" fill="url(#paint3_radial_1584_14573)"/>
<path fill-rule="evenodd" clip-rule="evenodd" d="M226.39 193.312L278.815 31.6286C282.928 18.952 275.99 5.30918 263.339 1.19371C250.689 -2.92176 237.075 4.02501 232.968 16.7016L180.543 178.379C176.43 191.056 183.368 204.699 196.018 208.814C208.668 212.936 222.283 205.989 226.39 193.312Z" fill="url(#paint4_radial_1584_14573)"/>
<path fill-rule="evenodd" clip-rule="evenodd" d="M226.39 193.312L278.815 31.6286C282.928 18.952 275.99 5.30918 263.339 1.19371C250.689 -2.92176 237.075 4.02501 232.968 16.7016L180.543 178.379C176.43 191.056 183.368 204.699 196.018 208.814C208.668 212.936 222.283 205.989 226.39 193.312Z" fill="url(#paint5_radial_1584_14573)"/>
<path fill-rule="evenodd" clip-rule="evenodd" d="M139.993 97.4816C145.943 97.4816 150.33 100.973 154.071 105.352C158.227 110.226 161.547 116.267 164.366 122.682C177.04 151.478 179.414 187.502 179.414 187.502C180.323 200.803 191.839 210.856 205.111 209.945C218.384 209.034 228.416 197.488 227.507 184.194C227.507 184.194 224.321 139.199 208.474 103.187C194.884 72.3057 171.872 49.1722 139.999 49.1722C108.126 49.1722 85.1145 72.3057 71.5246 103.187C55.6706 139.199 52.4913 184.194 52.4913 184.194C51.5821 197.494 61.6143 209.034 74.887 209.945C88.1596 210.856 99.6747 200.803 100.584 187.502C100.584 187.502 102.958 151.484 115.632 122.682C118.452 116.273 121.771 110.226 125.927 105.352C129.662 100.973 134.049 97.4816 139.993 97.4816Z" fill="#E63CFE"/>
<path fill-rule="evenodd" clip-rule="evenodd" d="M139.993 97.4816C145.943 97.4816 150.33 100.973 154.071 105.352C158.227 110.226 161.547 116.267 164.366 122.682C177.04 151.478 179.414 187.502 179.414 187.502C180.323 200.803 191.839 210.856 205.111 209.945C218.384 209.034 228.416 197.488 227.507 184.194C227.507 184.194 224.321 139.199 208.474 103.187C194.884 72.3057 171.872 49.1722 139.999 49.1722C108.126 49.1722 85.1145 72.3057 71.5246 103.187C55.6706 139.199 52.4913 184.194 52.4913 184.194C51.5821 197.494 61.6143 209.034 74.887 209.945C88.1596 210.856 99.6747 200.803 100.584 187.502C100.584 187.502 102.958 151.484 115.632 122.682C118.452 116.273 121.771 110.226 125.927 105.352C129.662 100.973 134.049 97.4816 139.993 97.4816Z" fill="url(#paint6_radial_1584_14573)"/>
<path fill-rule="evenodd" clip-rule="evenodd" d="M139.993 97.4816C145.943 97.4816 150.33 100.973 154.071 105.352C158.227 110.226 161.547 116.267 164.366 122.682C177.04 151.478 179.414 187.502 179.414 187.502C180.323 200.803 191.839 210.856 205.111 209.945C218.384 209.034 228.416 197.488 227.507 184.194C227.507 184.194 224.321 139.199 208.474 103.187C194.884 72.3057 171.872 49.1722 139.999 49.1722C108.126 49.1722 85.1145 72.3057 71.5246 103.187C55.6706 139.199 52.4913 184.194 52.4913 184.194C51.5821 197.494 61.6143 209.034 74.887 209.945C88.1596 210.856 99.6747 200.803 100.584 187.502C100.584 187.502 102.958 151.484 115.632 122.682C118.452 116.273 121.771 110.226 125.927 105.352C129.662 100.973 134.049 97.4816 139.993 97.4816Z" fill="url(#paint7_radial_1584_14573)"/>
<path fill-rule="evenodd" clip-rule="evenodd" d="M139.993 97.4816C145.943 97.4816 150.33 100.973 154.071 105.352C158.227 110.226 161.547 116.267 164.366 122.682C177.04 151.478 179.414 187.502 179.414 187.502C180.323 200.803 191.839 210.856 205.111 209.945C218.384 209.034 228.416 197.488 227.507 184.194C227.507 184.194 224.321 139.199 208.474 103.187C194.884 72.3057 171.872 49.1722 139.999 49.1722C108.126 49.1722 85.1145 72.3057 71.5246 103.187C55.6706 139.199 52.4913 184.194 52.4913 184.194C51.5821 197.494 61.6143 209.034 74.887 209.945C88.1596 210.856 99.6747 200.803 100.584 187.502C100.584 187.502 102.958 151.484 115.632 122.682C118.452 116.273 121.771 110.226 125.927 105.352C129.662 100.973 134.049 97.4816 139.993 97.4816Z" fill="url(#paint8_radial_1584_14573)"/>
<path fill-rule="evenodd" clip-rule="evenodd" d="M139.993 97.4816C145.943 97.4816 150.33 100.973 154.071 105.352C158.227 110.226 161.547 116.267 164.366 122.682C177.04 151.478 179.414 187.502 179.414 187.502C180.323 200.803 191.839 210.856 205.111 209.945C218.384 209.034 228.416 197.488 227.507 184.194C227.507 184.194 224.321 139.199 208.474 103.187C194.884 72.3057 171.872 49.1722 139.999 49.1722C108.126 49.1722 85.1145 72.3057 71.5246 103.187C55.6706 139.199 52.4913 184.194 52.4913 184.194C51.5821 197.494 61.6143 209.034 74.887 209.945C88.1596 210.856 99.6747 200.803 100.584 187.502C100.584 187.502 102.958 151.484 115.632 122.682C118.452 116.273 121.771 110.226 125.927 105.352C129.662 100.973 134.049 97.4816 139.993 97.4816Z" fill="url(#paint9_radial_1584_14573)"/>
<path fill-rule="evenodd" clip-rule="evenodd" d="M139.993 97.4816C145.943 97.4816 150.33 100.973 154.071 105.352C158.227 110.226 161.547 116.267 164.366 122.682C177.04 151.478 179.414 187.502 179.414 187.502C180.323 200.803 191.839 210.856 205.111 209.945C218.384 209.034 228.416 197.488 227.507 184.194C227.507 184.194 224.321 139.199 208.474 103.187C194.884 72.3057 171.872 49.1722 139.999 49.1722C108.126 49.1722 85.1145 72.3057 71.5246 103.187C55.6706 139.199 52.4913 184.194 52.4913 184.194C51.5821 197.494 61.6143 209.034 74.887 209.945C88.1596 210.856 99.6747 200.803 100.584 187.502C100.584 187.502 102.958 151.484 115.632 122.682C118.452 116.273 121.771 110.226 125.927 105.352C129.662 100.973 134.049 97.4816 139.993 97.4816Z" fill="url(#paint10_radial_1584_14573)"/>
<path fill-rule="evenodd" clip-rule="evenodd" d="M139.993 97.4816C145.943 97.4816 150.33 100.973 154.071 105.352C158.227 110.226 161.547 116.267 164.366 122.682C177.04 151.478 179.414 187.502 179.414 187.502C180.323 200.803 191.839 210.856 205.111 209.945C218.384 209.034 228.416 197.488 227.507 184.194C227.507 184.194 224.321 139.199 208.474 103.187C194.884 72.3057 171.872 49.1722 139.999 49.1722C108.126 49.1722 85.1145 72.3057 71.5246 103.187C55.6706 139.199 52.4913 184.194 52.4913 184.194C51.5821 197.494 61.6143 209.034 74.887 209.945C88.1596 210.856 99.6747 200.803 100.584 187.502C100.584 187.502 102.958 151.484 115.632 122.682C118.452 116.273 121.771 110.226 125.927 105.352C129.662 100.973 134.049 97.4816 139.993 97.4816Z" fill="url(#paint11_radial_1584_14573)"/>
<path fill-rule="evenodd" clip-rule="evenodd" d="M139.993 97.4816C145.943 97.4816 150.33 100.973 154.071 105.352C158.227 110.226 161.547 116.267 164.366 122.682C177.04 151.478 179.414 187.502 179.414 187.502C180.323 200.803 191.839 210.856 205.111 209.945C218.384 209.034 228.416 197.488 227.507 184.194C227.507 184.194 224.321 139.199 208.474 103.187C194.884 72.3057 171.872 49.1722 139.999 49.1722C108.126 49.1722 85.1145 72.3057 71.5246 103.187C55.6706 139.199 52.4913 184.194 52.4913 184.194C51.5821 197.494 61.6143 209.034 74.887 209.945C88.1596 210.856 99.6747 200.803 100.584 187.502C100.584 187.502 102.958 151.484 115.632 122.682C118.452 116.273 121.771 110.226 125.927 105.352C129.662 100.973 134.049 97.4816 139.993 97.4816Z" fill="url(#paint12_radial_1584_14573)"/>
<path fill-rule="evenodd" clip-rule="evenodd" d="M139.993 97.4816C145.943 97.4816 150.33 100.973 154.071 105.352C158.227 110.226 161.547 116.267 164.366 122.682C177.04 151.478 179.414 187.502 179.414 187.502C180.323 200.803 191.839 210.856 205.111 209.945C218.384 209.034 228.416 197.488 227.507 184.194C227.507 184.194 224.321 139.199 208.474 103.187C194.884 72.3057 171.872 49.1722 139.999 49.1722C108.126 49.1722 85.1145 72.3057 71.5246 103.187C55.6706 139.199 52.4913 184.194 52.4913 184.194C51.5821 197.494 61.6143 209.034 74.887 209.945C88.1596 210.856 99.6747 200.803 100.584 187.502C100.584 187.502 102.958 151.484 115.632 122.682C118.452 116.273 121.771 110.226 125.927 105.352C129.662 100.973 134.049 97.4816 139.993 97.4816Z" fill="url(#paint13_radial_1584_14573)"/>
<path fill-rule="evenodd" clip-rule="evenodd" d="M99.4573 178.379L47.032 16.6954C42.9251 4.01879 29.3169 -2.9341 16.6606 1.18749C4.0104 5.30907 -2.92798 18.9458 1.18501 31.6224L53.6103 193.306C57.7233 205.983 71.3316 212.936 83.9818 208.814C96.632 204.692 103.57 191.056 99.4573 178.379Z" fill="url(#paint14_linear_1584_14573)"/>
<path fill-rule="evenodd" clip-rule="evenodd" d="M99.4573 178.379L47.032 16.6954C42.9251 4.01879 29.3169 -2.9341 16.6606 1.18749C4.0104 5.30907 -2.92798 18.9458 1.18501 31.6224L53.6103 193.306C57.7233 205.983 71.3316 212.936 83.9818 208.814C96.632 204.692 103.57 191.056 99.4573 178.379Z" fill="url(#paint15_radial_1584_14573)"/>
<path fill-rule="evenodd" clip-rule="evenodd" d="M99.4573 178.379L47.032 16.6954C42.9251 4.01879 29.3169 -2.9341 16.6606 1.18749C4.0104 5.30907 -2.92798 18.9458 1.18501 31.6224L53.6103 193.306C57.7233 205.983 71.3316 212.936 83.9818 208.814C96.632 204.692 103.57 191.056 99.4573 178.379Z" fill="url(#paint16_linear_1584_14573)"/>
<path fill-rule="evenodd" clip-rule="evenodd" d="M99.4573 178.379L47.032 16.6954C42.9251 4.01879 29.3169 -2.9341 16.6606 1.18749C4.0104 5.30907 -2.92798 18.9458 1.18501 31.6224L53.6103 193.306C57.7233 205.983 71.3316 212.936 83.9818 208.814C96.632 204.692 103.57 191.056 99.4573 178.379Z" fill="url(#paint17_radial_1584_14573)"/>
<path fill-rule="evenodd" clip-rule="evenodd" d="M99.4573 178.379L47.032 16.6954C42.9251 4.01879 29.3169 -2.9341 16.6606 1.18749C4.0104 5.30907 -2.92798 18.9458 1.18501 31.6224L53.6103 193.306C57.7233 205.983 71.3316 212.936 83.9818 208.814C96.632 204.692 103.57 191.056 99.4573 178.379Z" fill="url(#paint18_radial_1584_14573)"/>
<defs>
<linearGradient id="paint0_linear_1584_14573" x1="306.855" y1="-52.9636" x2="228.352" y2="200.884" gradientUnits="userSpaceOnUse">
<stop stop-color="#4A4EFA"/>
<stop offset="0.548576" stop-color="#E63CFE"/>
</linearGradient>
<linearGradient id="paint1_linear_1584_14573" x1="208.257" y1="93.3713" x2="252.729" y2="107.767" gradientUnits="userSpaceOnUse">
<stop offset="0.160046" stop-color="#4A4EFA"/>
<stop offset="0.946031" stop-color="#4A4EFA" stop-opacity="0"/>
</linearGradient>
<linearGradient id="paint2_linear_1584_14573" x1="214.996" y1="72.0268" x2="242.939" y2="80.9642" gradientUnits="userSpaceOnUse">
<stop stop-color="#39FBBB"/>
<stop offset="1" stop-color="#39FBBB" stop-opacity="0"/>
</linearGradient>
<radialGradient id="paint3_radial_1584_14573" cx="0" cy="0" r="1" gradientUnits="userSpaceOnUse" gradientTransform="translate(204.671 131.152) rotate(-64.165) scale(145.706 145.706)">
<stop offset="0.832168" stop-color="#4A4EFA" stop-opacity="0"/>
<stop offset="1" stop-color="#4A4EFA" stop-opacity="0.75"/>
</radialGradient>
<radialGradient id="paint4_radial_1584_14573" cx="0" cy="0" r="1" gradientUnits="userSpaceOnUse" gradientTransform="translate(201.846 121.534) scale(32.4848 69.4724)">
<stop offset="0.169047" stop-color="#11417A"/>
<stop offset="0.926198" stop-color="#4069D4" stop-opacity="0"/>
</radialGradient>
<radialGradient id="paint5_radial_1584_14573" cx="0" cy="0" r="1" gradientUnits="userSpaceOnUse" gradientTransform="translate(239.447 210.002) rotate(-90) scale(107.447 51.4954)">
<stop offset="0.34895" stop-color="#E63CFE"/>
<stop offset="1" stop-color="#E63CFE" stop-opacity="0"/>
</radialGradient>
<radialGradient id="paint6_radial_1584_14573" cx="0" cy="0" r="1" gradientUnits="userSpaceOnUse" gradientTransform="translate(131.829 133.975) rotate(-85.7675) scale(110.702 98.2957)">
<stop stop-color="#39FBBB" stop-opacity="0.5"/>
<stop offset="0.688731" stop-color="#39FBBB"/>
<stop offset="1" stop-color="#39FBBB" stop-opacity="0"/>
</radialGradient>
<radialGradient id="paint7_radial_1584_14573" cx="0" cy="0" r="1" gradientUnits="userSpaceOnUse" gradientTransform="translate(289.556 196.302) rotate(-122.629) scale(265.393 64.566)">
<stop stop-color="#E63CFE"/>
<stop offset="1" stop-color="#E63CFE" stop-opacity="0"/>
</radialGradient>
<radialGradient id="paint8_radial_1584_14573" cx="0" cy="0" r="1" gradientUnits="userSpaceOnUse" gradientTransform="translate(136.228 168.143) rotate(-85.0198) scale(119.421 102.727)">
<stop offset="0.556793" stop-color="#4A4EFA"/>
<stop offset="0.934777" stop-color="#4A4EFA" stop-opacity="0"/>
</radialGradient>
<radialGradient id="paint9_radial_1584_14573" cx="0" cy="0" r="1" gradientUnits="userSpaceOnUse" gradientTransform="translate(103.845 204.287) rotate(-68.6367) scale(124.715 74.4263)">
<stop offset="0.61345" stop-color="#E63CFE"/>
<stop offset="1" stop-color="#E63CFE" stop-opacity="0"/>
</radialGradient>
<radialGradient id="paint10_radial_1584_14573" cx="0" cy="0" r="1" gradientUnits="userSpaceOnUse" gradientTransform="translate(224.514 119.829) rotate(176.233) scale(154.849 391.458)">
<stop offset="0.813918" stop-color="#4A98D0" stop-opacity="0"/>
<stop offset="0.972647" stop-color="#11417A"/>
</radialGradient>
<radialGradient id="paint11_radial_1584_14573" cx="0" cy="0" r="1" gradientUnits="userSpaceOnUse" gradientTransform="translate(94.5449 210.002) rotate(-90) scale(110.979 92.082)">
<stop offset="0.457769" stop-color="#FFAE3C"/>
<stop offset="1" stop-color="#FFAE3C" stop-opacity="0"/>
</radialGradient>
<radialGradient id="paint12_radial_1584_14573" cx="0" cy="0" r="1" gradientUnits="userSpaceOnUse" gradientTransform="translate(229.118 210.002) rotate(-90) scale(100.032 100.032)">
<stop offset="0.191715" stop-color="#E63CFE"/>
<stop offset="1" stop-color="#E63CFE" stop-opacity="0"/>
</radialGradient>
<radialGradient id="paint13_radial_1584_14573" cx="0" cy="0" r="1" gradientUnits="userSpaceOnUse" gradientTransform="translate(170.432 210.002) rotate(-90) scale(75.2736 35.7565)">
<stop offset="0.173611" stop-color="#FFAE3C"/>
<stop offset="1" stop-color="#FFAE3C" stop-opacity="0"/>
</radialGradient>
<linearGradient id="paint14_linear_1584_14573" x1="-8.23703" y1="10.0911" x2="59.4499" y2="220.675" gradientUnits="userSpaceOnUse">
<stop offset="0.169527" stop-color="#E63CFE"/>
<stop offset="0.708644" stop-color="#FFAE3C"/>
</linearGradient>
<radialGradient id="paint15_radial_1584_14573" cx="0" cy="0" r="1" gradientUnits="userSpaceOnUse" gradientTransform="translate(47.1735 64.1846) rotate(161.042) scale(33.771 164.906)">
<stop offset="0.120383" stop-color="#4A4EFA"/>
<stop offset="1" stop-color="#4A4EFA" stop-opacity="0"/>
</radialGradient>
<linearGradient id="paint16_linear_1584_14573" x1="76.8747" y1="108.515" x2="67.3958" y2="111.618" gradientUnits="userSpaceOnUse">
<stop stop-color="#E63CFE" stop-opacity="0.33"/>
<stop offset="1" stop-color="#E63CFE" stop-opacity="0"/>
</linearGradient>
<radialGradient id="paint17_radial_1584_14573" cx="0" cy="0" r="1" gradientUnits="userSpaceOnUse" gradientTransform="translate(100.642 210.002) rotate(-90) scale(108.501 118.53)">
<stop offset="0.465389" stop-color="#FFAE3C"/>
<stop offset="0.92565" stop-color="#FFAE3C" stop-opacity="0"/>
</radialGradient>
<radialGradient id="paint18_radial_1584_14573" cx="0" cy="0" r="1" gradientUnits="userSpaceOnUse" gradientTransform="translate(100.642 210.002) rotate(-90) scale(237.405 237.405)">
<stop offset="0.843756" stop-color="#E63CFE" stop-opacity="0"/>
<stop offset="1" stop-color="#E63CFE"/>
</radialGradient>
</defs>
</svg>
