<svg width="281" height="210" viewBox="0 0 281 210" fill="none" xmlns="http://www.w3.org/2000/svg">
<path fill-rule="evenodd" clip-rule="evenodd" d="M227.117 193.31L279.542 31.6283C283.655 18.9518 276.717 5.30913 264.067 1.1937C251.417 -2.92173 237.803 4.02497 233.696 16.7015L181.271 178.377C177.158 191.054 184.096 204.697 196.746 208.812C209.396 212.934 223.011 205.987 227.117 193.31Z" fill="url(#paint0_linear_1584_14569)"/>
<path fill-rule="evenodd" clip-rule="evenodd" d="M227.117 193.31L279.542 31.6283C283.655 18.9518 276.717 5.30913 264.067 1.1937C251.417 -2.92173 237.803 4.02497 233.696 16.7015L181.271 178.377C177.158 191.054 184.096 204.697 196.746 208.812C209.396 212.934 223.011 205.987 227.117 193.31Z" fill="url(#paint1_linear_1584_14569)"/>
<path fill-rule="evenodd" clip-rule="evenodd" d="M227.117 193.31L279.542 31.6283C283.655 18.9518 276.717 5.30913 264.067 1.1937C251.417 -2.92173 237.803 4.02497 233.696 16.7015L181.271 178.377C177.158 191.054 184.096 204.697 196.746 208.812C209.396 212.934 223.011 205.987 227.117 193.31Z" fill="url(#paint2_linear_1584_14569)" fill-opacity="0.8"/>
<path fill-rule="evenodd" clip-rule="evenodd" d="M227.117 193.31L279.542 31.6283C283.655 18.9518 276.717 5.30913 264.067 1.1937C251.417 -2.92173 237.803 4.02497 233.696 16.7015L181.271 178.377C177.158 191.054 184.096 204.697 196.746 208.812C209.396 212.934 223.011 205.987 227.117 193.31Z" fill="url(#paint3_radial_1584_14569)"/>
<path fill-rule="evenodd" clip-rule="evenodd" d="M227.117 193.31L279.542 31.6283C283.655 18.9518 276.717 5.30913 264.067 1.1937C251.417 -2.92173 237.803 4.02497 233.696 16.7015L181.271 178.377C177.158 191.054 184.096 204.697 196.746 208.812C209.396 212.934 223.011 205.987 227.117 193.31Z" fill="url(#paint4_radial_1584_14569)"/>
<path fill-rule="evenodd" clip-rule="evenodd" d="M227.117 193.31L279.542 31.6283C283.655 18.9518 276.717 5.30913 264.067 1.1937C251.417 -2.92173 237.803 4.02497 233.696 16.7015L181.271 178.377C177.158 191.054 184.096 204.697 196.746 208.812C209.396 212.934 223.011 205.987 227.117 193.31Z" fill="url(#paint5_radial_1584_14569)"/>
<path fill-rule="evenodd" clip-rule="evenodd" d="M140.722 97.4807C146.671 97.4807 151.059 100.972 154.8 105.351C158.955 110.224 162.275 116.266 165.094 122.681C177.769 151.477 180.142 187.5 180.142 187.5C181.052 200.801 192.567 210.854 205.839 209.943C219.112 209.031 229.144 197.486 228.235 184.192C228.235 184.192 225.049 139.198 209.202 103.186C195.612 72.305 172.6 49.1718 140.728 49.1718C108.855 49.1718 85.8437 72.305 72.2539 103.186C56.4001 139.198 53.2208 184.192 53.2208 184.192C52.3116 197.492 62.3437 209.031 75.6162 209.943C88.8887 210.854 100.404 200.801 101.313 187.5C101.313 187.5 103.687 151.483 116.361 122.681C119.18 116.272 122.5 110.224 126.656 105.351C130.39 100.972 134.778 97.4807 140.722 97.4807Z" fill="#E63CFE"/>
<path fill-rule="evenodd" clip-rule="evenodd" d="M140.722 97.4807C146.671 97.4807 151.059 100.972 154.8 105.351C158.955 110.224 162.275 116.266 165.094 122.681C177.769 151.477 180.142 187.5 180.142 187.5C181.052 200.801 192.567 210.854 205.839 209.943C219.112 209.031 229.144 197.486 228.235 184.192C228.235 184.192 225.049 139.198 209.202 103.186C195.612 72.305 172.6 49.1718 140.728 49.1718C108.855 49.1718 85.8437 72.305 72.2539 103.186C56.4001 139.198 53.2208 184.192 53.2208 184.192C52.3116 197.492 62.3437 209.031 75.6162 209.943C88.8887 210.854 100.404 200.801 101.313 187.5C101.313 187.5 103.687 151.483 116.361 122.681C119.18 116.272 122.5 110.224 126.656 105.351C130.39 100.972 134.778 97.4807 140.722 97.4807Z" fill="url(#paint6_radial_1584_14569)"/>
<path fill-rule="evenodd" clip-rule="evenodd" d="M140.722 97.4807C146.671 97.4807 151.059 100.972 154.8 105.351C158.955 110.224 162.275 116.266 165.094 122.681C177.769 151.477 180.142 187.5 180.142 187.5C181.052 200.801 192.567 210.854 205.839 209.943C219.112 209.031 229.144 197.486 228.235 184.192C228.235 184.192 225.049 139.198 209.202 103.186C195.612 72.305 172.6 49.1718 140.728 49.1718C108.855 49.1718 85.8437 72.305 72.2539 103.186C56.4001 139.198 53.2208 184.192 53.2208 184.192C52.3116 197.492 62.3437 209.031 75.6162 209.943C88.8887 210.854 100.404 200.801 101.313 187.5C101.313 187.5 103.687 151.483 116.361 122.681C119.18 116.272 122.5 110.224 126.656 105.351C130.39 100.972 134.778 97.4807 140.722 97.4807Z" fill="url(#paint7_radial_1584_14569)"/>
<path fill-rule="evenodd" clip-rule="evenodd" d="M140.722 97.4807C146.671 97.4807 151.059 100.972 154.8 105.351C158.955 110.224 162.275 116.266 165.094 122.681C177.769 151.477 180.142 187.5 180.142 187.5C181.052 200.801 192.567 210.854 205.839 209.943C219.112 209.031 229.144 197.486 228.235 184.192C228.235 184.192 225.049 139.198 209.202 103.186C195.612 72.305 172.6 49.1718 140.728 49.1718C108.855 49.1718 85.8437 72.305 72.2539 103.186C56.4001 139.198 53.2208 184.192 53.2208 184.192C52.3116 197.492 62.3437 209.031 75.6162 209.943C88.8887 210.854 100.404 200.801 101.313 187.5C101.313 187.5 103.687 151.483 116.361 122.681C119.18 116.272 122.5 110.224 126.656 105.351C130.39 100.972 134.778 97.4807 140.722 97.4807Z" fill="url(#paint8_radial_1584_14569)"/>
<path fill-rule="evenodd" clip-rule="evenodd" d="M140.722 97.4807C146.671 97.4807 151.059 100.972 154.8 105.351C158.955 110.224 162.275 116.266 165.094 122.681C177.769 151.477 180.142 187.5 180.142 187.5C181.052 200.801 192.567 210.854 205.839 209.943C219.112 209.031 229.144 197.486 228.235 184.192C228.235 184.192 225.049 139.198 209.202 103.186C195.612 72.305 172.6 49.1718 140.728 49.1718C108.855 49.1718 85.8437 72.305 72.2539 103.186C56.4001 139.198 53.2208 184.192 53.2208 184.192C52.3116 197.492 62.3437 209.031 75.6162 209.943C88.8887 210.854 100.404 200.801 101.313 187.5C101.313 187.5 103.687 151.483 116.361 122.681C119.18 116.272 122.5 110.224 126.656 105.351C130.39 100.972 134.778 97.4807 140.722 97.4807Z" fill="url(#paint9_radial_1584_14569)"/>
<path fill-rule="evenodd" clip-rule="evenodd" d="M140.722 97.4807C146.671 97.4807 151.059 100.972 154.8 105.351C158.955 110.224 162.275 116.266 165.094 122.681C177.769 151.477 180.142 187.5 180.142 187.5C181.052 200.801 192.567 210.854 205.839 209.943C219.112 209.031 229.144 197.486 228.235 184.192C228.235 184.192 225.049 139.198 209.202 103.186C195.612 72.305 172.6 49.1718 140.728 49.1718C108.855 49.1718 85.8437 72.305 72.2539 103.186C56.4001 139.198 53.2208 184.192 53.2208 184.192C52.3116 197.492 62.3437 209.031 75.6162 209.943C88.8887 210.854 100.404 200.801 101.313 187.5C101.313 187.5 103.687 151.483 116.361 122.681C119.18 116.272 122.5 110.224 126.656 105.351C130.39 100.972 134.778 97.4807 140.722 97.4807Z" fill="url(#paint10_radial_1584_14569)"/>
<path fill-rule="evenodd" clip-rule="evenodd" d="M140.722 97.4807C146.671 97.4807 151.059 100.972 154.8 105.351C158.955 110.224 162.275 116.266 165.094 122.681C177.769 151.477 180.142 187.5 180.142 187.5C181.052 200.801 192.567 210.854 205.839 209.943C219.112 209.031 229.144 197.486 228.235 184.192C228.235 184.192 225.049 139.198 209.202 103.186C195.612 72.305 172.6 49.1718 140.728 49.1718C108.855 49.1718 85.8437 72.305 72.2539 103.186C56.4001 139.198 53.2208 184.192 53.2208 184.192C52.3116 197.492 62.3437 209.031 75.6162 209.943C88.8887 210.854 100.404 200.801 101.313 187.5C101.313 187.5 103.687 151.483 116.361 122.681C119.18 116.272 122.5 110.224 126.656 105.351C130.39 100.972 134.778 97.4807 140.722 97.4807Z" fill="url(#paint11_radial_1584_14569)"/>
<path fill-rule="evenodd" clip-rule="evenodd" d="M140.722 97.4807C146.671 97.4807 151.059 100.972 154.8 105.351C158.955 110.224 162.275 116.266 165.094 122.681C177.769 151.477 180.142 187.5 180.142 187.5C181.052 200.801 192.567 210.854 205.839 209.943C219.112 209.031 229.144 197.486 228.235 184.192C228.235 184.192 225.049 139.198 209.202 103.186C195.612 72.305 172.6 49.1718 140.728 49.1718C108.855 49.1718 85.8437 72.305 72.2539 103.186C56.4001 139.198 53.2208 184.192 53.2208 184.192C52.3116 197.492 62.3437 209.031 75.6162 209.943C88.8887 210.854 100.404 200.801 101.313 187.5C101.313 187.5 103.687 151.483 116.361 122.681C119.18 116.272 122.5 110.224 126.656 105.351C130.39 100.972 134.778 97.4807 140.722 97.4807Z" fill="url(#paint12_radial_1584_14569)"/>
<path fill-rule="evenodd" clip-rule="evenodd" d="M140.722 97.4807C146.671 97.4807 151.059 100.972 154.8 105.351C158.955 110.224 162.275 116.266 165.094 122.681C177.769 151.477 180.142 187.5 180.142 187.5C181.052 200.801 192.567 210.854 205.839 209.943C219.112 209.031 229.144 197.486 228.235 184.192C228.235 184.192 225.049 139.198 209.202 103.186C195.612 72.305 172.6 49.1718 140.728 49.1718C108.855 49.1718 85.8437 72.305 72.2539 103.186C56.4001 139.198 53.2208 184.192 53.2208 184.192C52.3116 197.492 62.3437 209.031 75.6162 209.943C88.8887 210.854 100.404 200.801 101.313 187.5C101.313 187.5 103.687 151.483 116.361 122.681C119.18 116.272 122.5 110.224 126.656 105.351C130.39 100.972 134.778 97.4807 140.722 97.4807Z" fill="url(#paint13_radial_1584_14569)"/>
<path fill-rule="evenodd" clip-rule="evenodd" d="M100.187 178.377L47.7617 16.6952C43.6549 4.01874 30.0468 -2.93407 17.3906 1.18747C4.74058 5.30902 -2.19772 18.9456 1.91522 31.6221L54.34 193.304C58.453 205.981 72.0611 212.933 84.7111 208.812C97.3612 204.69 104.299 191.054 100.187 178.377Z" fill="url(#paint14_linear_1584_14569)"/>
<path fill-rule="evenodd" clip-rule="evenodd" d="M100.187 178.377L47.7617 16.6952C43.6549 4.01874 30.0468 -2.93407 17.3906 1.18747C4.74058 5.30902 -2.19772 18.9456 1.91522 31.6221L54.34 193.304C58.453 205.981 72.0611 212.933 84.7111 208.812C97.3612 204.69 104.299 191.054 100.187 178.377Z" fill="url(#paint15_radial_1584_14569)"/>
<path fill-rule="evenodd" clip-rule="evenodd" d="M100.187 178.377L47.7617 16.6952C43.6549 4.01874 30.0468 -2.93407 17.3906 1.18747C4.74058 5.30902 -2.19772 18.9456 1.91522 31.6221L54.34 193.304C58.453 205.981 72.0611 212.933 84.7111 208.812C97.3612 204.69 104.299 191.054 100.187 178.377Z" fill="url(#paint16_linear_1584_14569)"/>
<path fill-rule="evenodd" clip-rule="evenodd" d="M100.187 178.377L47.7617 16.6952C43.6549 4.01874 30.0468 -2.93407 17.3906 1.18747C4.74058 5.30902 -2.19772 18.9456 1.91522 31.6221L54.34 193.304C58.453 205.981 72.0611 212.933 84.7111 208.812C97.3612 204.69 104.299 191.054 100.187 178.377Z" fill="url(#paint17_radial_1584_14569)"/>
<path fill-rule="evenodd" clip-rule="evenodd" d="M100.187 178.377L47.7617 16.6952C43.6549 4.01874 30.0468 -2.93407 17.3906 1.18747C4.74058 5.30902 -2.19772 18.9456 1.91522 31.6221L54.34 193.304C58.453 205.981 72.0611 212.933 84.7111 208.812C97.3612 204.69 104.299 191.054 100.187 178.377Z" fill="url(#paint18_radial_1584_14569)"/>
<defs>
<linearGradient id="paint0_linear_1584_14569" x1="307.582" y1="-52.9631" x2="229.08" y2="200.881" gradientUnits="userSpaceOnUse">
<stop stop-color="#4A4EFA"/>
<stop offset="0.625265" stop-color="#E63CFE"/>
</linearGradient>
<linearGradient id="paint1_linear_1584_14569" x1="208.985" y1="93.3703" x2="253.457" y2="107.766" gradientUnits="userSpaceOnUse">
<stop offset="0.160046" stop-color="#4A4EFA"/>
<stop offset="0.943483" stop-color="#4A4EFA" stop-opacity="0"/>
</linearGradient>
<linearGradient id="paint2_linear_1584_14569" x1="215.724" y1="72.0261" x2="243.667" y2="80.9633" gradientUnits="userSpaceOnUse">
<stop stop-color="#39FBBB"/>
<stop offset="1" stop-color="#39FBBB" stop-opacity="0"/>
</linearGradient>
<radialGradient id="paint3_radial_1584_14569" cx="0" cy="0" r="1" gradientUnits="userSpaceOnUse" gradientTransform="translate(205.399 131.15) rotate(-64.165) scale(145.704 145.704)">
<stop offset="0.832168" stop-color="#4A4EFA" stop-opacity="0"/>
<stop offset="1" stop-color="#4A4EFA" stop-opacity="0.75"/>
</radialGradient>
<radialGradient id="paint4_radial_1584_14569" cx="0" cy="0" r="1" gradientUnits="userSpaceOnUse" gradientTransform="translate(201.685 115.394) scale(34.0426 60.7225)">
<stop offset="0.169047" stop-color="#11417A"/>
<stop offset="0.926198" stop-color="#4069D4" stop-opacity="0"/>
</radialGradient>
<radialGradient id="paint5_radial_1584_14569" cx="0" cy="0" r="1" gradientUnits="userSpaceOnUse" gradientTransform="translate(240.175 210) rotate(-90) scale(107.446 51.4949)">
<stop offset="0.34895" stop-color="#E63CFE"/>
<stop offset="1" stop-color="#E63CFE" stop-opacity="0"/>
</radialGradient>
<radialGradient id="paint6_radial_1584_14569" cx="0" cy="0" r="1" gradientUnits="userSpaceOnUse" gradientTransform="translate(132.558 133.974) rotate(-85.7675) scale(110.701 98.2946)">
<stop stop-color="#39FBBB" stop-opacity="0.5"/>
<stop offset="0.688731" stop-color="#39FBBB"/>
<stop offset="1" stop-color="#39FBBB" stop-opacity="0"/>
</radialGradient>
<radialGradient id="paint7_radial_1584_14569" cx="0" cy="0" r="1" gradientUnits="userSpaceOnUse" gradientTransform="translate(290.283 196.3) rotate(-122.629) scale(265.39 64.5653)">
<stop stop-color="#E63CFE"/>
<stop offset="1" stop-color="#E63CFE" stop-opacity="0"/>
</radialGradient>
<radialGradient id="paint8_radial_1584_14569" cx="0" cy="0" r="1" gradientUnits="userSpaceOnUse" gradientTransform="translate(136.957 168.141) rotate(-85.0198) scale(119.42 95.6279)">
<stop offset="0.556793" stop-color="#4A4EFA"/>
<stop offset="0.934777" stop-color="#4A4EFA" stop-opacity="0"/>
</radialGradient>
<radialGradient id="paint9_radial_1584_14569" cx="0" cy="0" r="1" gradientUnits="userSpaceOnUse" gradientTransform="translate(106.158 210) rotate(-74.6912) scale(120.768 91.8172)">
<stop offset="0.553477" stop-color="#E63CFE"/>
<stop offset="1" stop-color="#E63CFE" stop-opacity="0"/>
</radialGradient>
<radialGradient id="paint10_radial_1584_14569" cx="0" cy="0" r="1" gradientUnits="userSpaceOnUse" gradientTransform="translate(225.242 119.828) rotate(176.233) scale(154.847 391.453)">
<stop offset="0.804195" stop-color="#4A98D0" stop-opacity="0"/>
<stop offset="0.978285" stop-color="#11417A"/>
</radialGradient>
<radialGradient id="paint11_radial_1584_14569" cx="0" cy="0" r="1" gradientUnits="userSpaceOnUse" gradientTransform="translate(95.274 210) rotate(-90) scale(110.978 120.845)">
<stop offset="0.391563" stop-color="#FFAE3C"/>
<stop offset="1" stop-color="#FFAE3C" stop-opacity="0"/>
</radialGradient>
<radialGradient id="paint12_radial_1584_14569" cx="0" cy="0" r="1" gradientUnits="userSpaceOnUse" gradientTransform="translate(229.845 210) rotate(-90) scale(126.642 88.0103)">
<stop offset="0.187738" stop-color="#E63CFE"/>
<stop offset="0.900721" stop-color="#E63CFE" stop-opacity="0"/>
</radialGradient>
<radialGradient id="paint13_radial_1584_14569" cx="0" cy="0" r="1" gradientUnits="userSpaceOnUse" gradientTransform="translate(171.161 210) rotate(-90) scale(69.9945 33.419)">
<stop offset="0.267415" stop-color="#FFAE3C"/>
<stop offset="1" stop-color="#FFAE3C" stop-opacity="0"/>
</radialGradient>
<linearGradient id="paint14_linear_1584_14569" x1="-7.50672" y1="10.091" x2="60.1795" y2="220.672" gradientUnits="userSpaceOnUse">
<stop offset="0.169527" stop-color="#E63CFE"/>
<stop offset="0.708644" stop-color="#FFAE3C"/>
</linearGradient>
<radialGradient id="paint15_radial_1584_14569" cx="0" cy="0" r="1" gradientUnits="userSpaceOnUse" gradientTransform="translate(47.9032 64.1839) rotate(161.042) scale(33.7707 164.904)">
<stop offset="0.120383" stop-color="#4A4EFA"/>
<stop offset="1" stop-color="#4A4EFA" stop-opacity="0"/>
</radialGradient>
<linearGradient id="paint16_linear_1584_14569" x1="77.6041" y1="108.514" x2="68.1254" y2="111.617" gradientUnits="userSpaceOnUse">
<stop stop-color="#E63CFE" stop-opacity="0.33"/>
<stop offset="1" stop-color="#E63CFE" stop-opacity="0"/>
</linearGradient>
<radialGradient id="paint17_radial_1584_14569" cx="0" cy="0" r="1" gradientUnits="userSpaceOnUse" gradientTransform="translate(101.371 209.999) rotate(-90) scale(108.5 118.529)">
<stop offset="0.465389" stop-color="#FFAE3C"/>
<stop offset="0.92565" stop-color="#FFAE3C" stop-opacity="0"/>
</radialGradient>
<radialGradient id="paint18_radial_1584_14569" cx="0" cy="0" r="1" gradientUnits="userSpaceOnUse" gradientTransform="translate(101.371 210) rotate(-90) scale(237.403 237.403)">
<stop offset="0.843756" stop-color="#E63CFE" stop-opacity="0"/>
<stop offset="1" stop-color="#E63CFE"/>
</radialGradient>
</defs>
</svg>
