<svg width="32" height="32" viewBox="0 0 32 32" fill="none" xmlns="http://www.w3.org/2000/svg">
<path fill-rule="evenodd" clip-rule="evenodd" d="M24.6387 24.8302L29.8812 8.66214C30.2925 7.3945 29.5987 6.03024 28.3337 5.6187C27.0687 5.20716 25.7072 5.90182 25.2965 7.16946L20.054 23.3369C19.6428 24.6046 20.3366 25.9688 21.6016 26.3804C22.8666 26.7925 24.228 26.0979 24.6387 24.8302Z" fill="url(#paint0_linear_631_1233)"/>
<path fill-rule="evenodd" clip-rule="evenodd" d="M24.6387 24.8302L29.8812 8.66214C30.2925 7.3945 29.5987 6.03024 28.3337 5.6187C27.0687 5.20716 25.7072 5.90182 25.2965 7.16946L20.054 23.3369C19.6428 24.6046 20.3366 25.9688 21.6016 26.3804C22.8666 26.7925 24.228 26.0979 24.6387 24.8302Z" fill="url(#paint1_linear_631_1233)"/>
<path fill-rule="evenodd" clip-rule="evenodd" d="M24.6387 24.8302L29.8812 8.66214C30.2925 7.3945 29.5987 6.03024 28.3337 5.6187C27.0687 5.20716 25.7072 5.90182 25.2965 7.16946L20.054 23.3369C19.6428 24.6046 20.3366 25.9688 21.6016 26.3804C22.8666 26.7925 24.228 26.0979 24.6387 24.8302Z" fill="url(#paint2_linear_631_1233)" fill-opacity="0.75"/>
<path fill-rule="evenodd" clip-rule="evenodd" d="M24.6387 24.8302L29.8812 8.66214C30.2925 7.3945 29.5987 6.03024 28.3337 5.6187C27.0687 5.20716 25.7072 5.90182 25.2965 7.16946L20.054 23.3369C19.6428 24.6046 20.3366 25.9688 21.6016 26.3804C22.8666 26.7925 24.228 26.0979 24.6387 24.8302Z" fill="url(#paint3_linear_631_1233)"/>
<g style="mix-blend-mode:multiply">
<path d="M24.7725 8.7854L29.384 10.1948C28.2126 13.8068 25.8699 21.0324 24.9865 23.7572L20.3748 22.3477L24.7725 8.7854Z" fill="url(#paint4_radial_631_1233)"/>
<path d="M24.7725 8.7854L29.384 10.1948C28.2126 13.8068 25.8699 21.0324 24.9865 23.7572L20.3748 22.3477L24.7725 8.7854Z" fill="url(#paint5_radial_631_1233)"/>
</g>
<path fill-rule="evenodd" clip-rule="evenodd" d="M15.9995 15.2474C16.5945 15.2474 17.0332 15.5965 17.4073 16.0344C17.8229 16.5217 18.1548 17.1259 18.4367 17.7674C19.7042 20.6469 19.9416 24.2493 19.9416 24.2493C20.0325 25.5793 21.184 26.5846 22.5113 26.4935C23.8385 26.4023 24.8417 25.2478 24.7508 23.9184C24.7508 23.9184 24.4323 19.419 22.8475 15.8179C21.4885 12.7298 19.1873 10.4165 16.0001 10.4165C12.8129 10.4165 10.5117 12.7298 9.15269 15.8179C7.56731 19.419 7.24938 23.9184 7.24938 23.9184C7.15845 25.2484 8.16167 26.4023 9.48892 26.4935C10.8162 26.5846 11.9677 25.5793 12.0586 24.2493C12.0586 24.2493 12.296 20.6475 13.5634 17.7674C13.8454 17.1265 14.1773 16.5217 14.5929 16.0344C14.9664 15.5965 15.4057 15.2474 16.0001 15.2474H15.9995Z" fill="#E63CFE"/>
<path fill-rule="evenodd" clip-rule="evenodd" d="M15.9995 15.2474C16.5945 15.2474 17.0332 15.5965 17.4073 16.0344C17.8229 16.5217 18.1548 17.1259 18.4367 17.7674C19.7042 20.6469 19.9416 24.2493 19.9416 24.2493C20.0325 25.5793 21.184 26.5846 22.5113 26.4935C23.8385 26.4023 24.8417 25.2478 24.7508 23.9184C24.7508 23.9184 24.4323 19.419 22.8475 15.8179C21.4885 12.7298 19.1873 10.4165 16.0001 10.4165C12.8129 10.4165 10.5117 12.7298 9.15269 15.8179C7.56731 19.419 7.24938 23.9184 7.24938 23.9184C7.15845 25.2484 8.16167 26.4023 9.48892 26.4935C10.8162 26.5846 11.9677 25.5793 12.0586 24.2493C12.0586 24.2493 12.296 20.6475 13.5634 17.7674C13.8454 17.1265 14.1773 16.5217 14.5929 16.0344C14.9664 15.5965 15.4057 15.2474 16.0001 15.2474H15.9995Z" fill="url(#paint6_radial_631_1233)"/>
<path fill-rule="evenodd" clip-rule="evenodd" d="M15.9995 15.2474C16.5945 15.2474 17.0332 15.5965 17.4073 16.0344C17.8229 16.5217 18.1548 17.1259 18.4367 17.7674C19.7042 20.6469 19.9416 24.2493 19.9416 24.2493C20.0325 25.5793 21.184 26.5846 22.5113 26.4935C23.8385 26.4023 24.8417 25.2478 24.7508 23.9184C24.7508 23.9184 24.4323 19.419 22.8475 15.8179C21.4885 12.7298 19.1873 10.4165 16.0001 10.4165C12.8129 10.4165 10.5117 12.7298 9.15269 15.8179C7.56731 19.419 7.24938 23.9184 7.24938 23.9184C7.15845 25.2484 8.16167 26.4023 9.48892 26.4935C10.8162 26.5846 11.9677 25.5793 12.0586 24.2493C12.0586 24.2493 12.296 20.6475 13.5634 17.7674C13.8454 17.1265 14.1773 16.5217 14.5929 16.0344C14.9664 15.5965 15.4057 15.2474 16.0001 15.2474H15.9995Z" fill="url(#paint7_radial_631_1233)"/>
<path fill-rule="evenodd" clip-rule="evenodd" d="M15.9995 15.2474C16.5945 15.2474 17.0332 15.5965 17.4073 16.0344C17.8229 16.5217 18.1548 17.1259 18.4367 17.7674C19.7042 20.6469 19.9416 24.2493 19.9416 24.2493C20.0325 25.5793 21.184 26.5846 22.5113 26.4935C23.8385 26.4023 24.8417 25.2478 24.7508 23.9184C24.7508 23.9184 24.4323 19.419 22.8475 15.8179C21.4885 12.7298 19.1873 10.4165 16.0001 10.4165C12.8129 10.4165 10.5117 12.7298 9.15269 15.8179C7.56731 19.419 7.24938 23.9184 7.24938 23.9184C7.15845 25.2484 8.16167 26.4023 9.48892 26.4935C10.8162 26.5846 11.9677 25.5793 12.0586 24.2493C12.0586 24.2493 12.296 20.6475 13.5634 17.7674C13.8454 17.1265 14.1773 16.5217 14.5929 16.0344C14.9664 15.5965 15.4057 15.2474 16.0001 15.2474H15.9995Z" fill="url(#paint8_radial_631_1233)"/>
<path fill-rule="evenodd" clip-rule="evenodd" d="M15.9995 15.2474C16.5945 15.2474 17.0332 15.5965 17.4073 16.0344C17.8229 16.5217 18.1548 17.1259 18.4367 17.7674C19.7042 20.6469 19.9416 24.2493 19.9416 24.2493C20.0325 25.5793 21.184 26.5846 22.5113 26.4935C23.8385 26.4023 24.8417 25.2478 24.7508 23.9184C24.7508 23.9184 24.4323 19.419 22.8475 15.8179C21.4885 12.7298 19.1873 10.4165 16.0001 10.4165C12.8129 10.4165 10.5117 12.7298 9.15269 15.8179C7.56731 19.419 7.24938 23.9184 7.24938 23.9184C7.15845 25.2484 8.16167 26.4023 9.48892 26.4935C10.8162 26.5846 11.9677 25.5793 12.0586 24.2493C12.0586 24.2493 12.296 20.6475 13.5634 17.7674C13.8454 17.1265 14.1773 16.5217 14.5929 16.0344C14.9664 15.5965 15.4057 15.2474 16.0001 15.2474H15.9995Z" fill="url(#paint9_radial_631_1233)"/>
<g style="mix-blend-mode:multiply">
<path fill-rule="evenodd" clip-rule="evenodd" d="M16.0001 10.4165C12.8129 10.4165 10.5117 12.7298 9.1527 15.8179C5.03501 25.171 9.81309 26.2897 13.5634 17.7673L16.0001 10.4165Z" fill="url(#paint10_radial_631_1233)"/>
<path fill-rule="evenodd" clip-rule="evenodd" d="M16.0001 10.4165C12.8129 10.4165 10.5117 12.7298 9.1527 15.8179C5.03501 25.171 9.81309 26.2897 13.5634 17.7673L16.0001 10.4165Z" fill="url(#paint11_radial_631_1233)"/>
</g>
<path fill-rule="evenodd" clip-rule="evenodd" d="M11.9457 23.3375L6.70317 7.16945C6.29248 5.90181 4.93167 5.20653 3.66605 5.61869C2.40104 6.03084 1.7072 7.39448 2.1185 8.66212L7.361 24.8302C7.77229 26.0978 9.13311 26.7931 10.3981 26.381C11.6631 25.9688 12.357 24.6052 11.9457 23.3375Z" fill="url(#paint12_linear_631_1233)"/>
<path fill-rule="evenodd" clip-rule="evenodd" d="M11.9457 23.3375L6.70317 7.16945C6.29248 5.90181 4.93167 5.20653 3.66605 5.61869C2.40104 6.03084 1.7072 7.39448 2.1185 8.66212L7.361 24.8302C7.77229 26.0978 9.13311 26.7931 10.3981 26.381C11.6631 25.9688 12.357 24.6052 11.9457 23.3375Z" fill="url(#paint13_linear_631_1233)"/>
<path fill-rule="evenodd" clip-rule="evenodd" d="M11.9457 23.3375L6.70317 7.16945C6.29248 5.90181 4.93167 5.20653 3.66605 5.61869C2.40104 6.03084 1.7072 7.39448 2.1185 8.66212L7.361 24.8302C7.77229 26.0978 9.13311 26.7931 10.3981 26.381C11.6631 25.9688 12.357 24.6052 11.9457 23.3375Z" fill="url(#paint14_linear_631_1233)"/>
<path fill-rule="evenodd" clip-rule="evenodd" d="M11.9457 23.3375L6.70317 7.16945C6.29248 5.90181 4.93167 5.20653 3.66605 5.61869C2.40104 6.03084 1.7072 7.39448 2.1185 8.66212L7.361 24.8302C7.77229 26.0978 9.13311 26.7931 10.3981 26.381C11.6631 25.9688 12.357 24.6052 11.9457 23.3375Z" fill="url(#paint15_linear_631_1233)"/>
<path fill-rule="evenodd" clip-rule="evenodd" d="M11.9457 23.3375L6.70317 7.16945C6.29248 5.90181 4.93167 5.20653 3.66605 5.61869C2.40104 6.03084 1.7072 7.39448 2.1185 8.66212L7.361 24.8302C7.77229 26.0978 9.13311 26.7931 10.3981 26.381C11.6631 25.9688 12.357 24.6052 11.9457 23.3375Z" fill="url(#paint16_linear_631_1233)"/>
<path fill-rule="evenodd" clip-rule="evenodd" d="M22.6392 15.3656C21.2589 12.5074 19.0297 10.4173 16.0005 10.4173C12.9713 10.4173 10.7422 12.5074 9.36182 15.3656L6.70365 7.16963C6.29297 5.90199 4.93215 5.20672 3.66653 5.61887C2.40153 6.03102 1.70769 7.39467 2.11899 8.66231L7.34745 24.7882C7.63121 25.7183 8.46295 26.4227 9.48814 26.4937C10.8154 26.5848 11.9669 25.5795 12.0578 24.2495C12.0578 24.2495 12.2952 20.6477 13.5627 17.7676C13.8446 17.1267 14.1765 16.5219 14.5921 16.0352C14.9656 15.5973 15.4049 15.2482 15.9993 15.2482C16.5937 15.2482 17.033 15.5973 17.4071 16.0352C17.8227 16.5219 18.1546 17.1267 18.4366 17.7676C19.704 20.6471 19.9414 24.2495 19.9414 24.2495C20.0329 25.5795 21.1844 26.5848 22.5117 26.4937C23.5369 26.4233 24.3692 25.7183 24.6524 24.7882L29.8815 8.66231C30.2928 7.39467 29.5989 6.03041 28.3339 5.61887C27.0689 5.20672 25.7075 5.90199 25.2968 7.16963L22.6392 15.3656Z" fill="url(#paint17_radial_631_1233)"/>
<path fill-rule="evenodd" clip-rule="evenodd" d="M22.6392 15.3656C21.2589 12.5074 19.0297 10.4173 16.0005 10.4173C12.9713 10.4173 10.7422 12.5074 9.36182 15.3656L6.70365 7.16963C6.29297 5.90199 4.93215 5.20672 3.66653 5.61887C2.40153 6.03102 1.70769 7.39467 2.11899 8.66231L7.34745 24.7882C7.63121 25.7183 8.46295 26.4227 9.48814 26.4937C10.8154 26.5848 11.9669 25.5795 12.0578 24.2495C12.0578 24.2495 12.2952 20.6477 13.5627 17.7676C13.8446 17.1267 14.1765 16.5219 14.5921 16.0352C14.9656 15.5973 15.4049 15.2482 15.9993 15.2482C16.5937 15.2482 17.033 15.5973 17.4071 16.0352C17.8227 16.5219 18.1546 17.1267 18.4366 17.7676C19.704 20.6471 19.9414 24.2495 19.9414 24.2495C20.0329 25.5795 21.1844 26.5848 22.5117 26.4937C23.5369 26.4233 24.3692 25.7183 24.6524 24.7882L29.8815 8.66231C30.2928 7.39467 29.5989 6.03041 28.3339 5.61887C27.0689 5.20672 25.7075 5.90199 25.2968 7.16963L22.6392 15.3656Z" fill="url(#paint18_radial_631_1233)"/>
<path fill-rule="evenodd" clip-rule="evenodd" d="M22.6392 15.3656C21.2589 12.5074 19.0297 10.4173 16.0005 10.4173C12.9713 10.4173 10.7422 12.5074 9.36182 15.3656L6.70365 7.16963C6.29297 5.90199 4.93215 5.20672 3.66653 5.61887C2.40153 6.03102 1.70769 7.39467 2.11899 8.66231L7.34745 24.7882C7.63121 25.7183 8.46295 26.4227 9.48814 26.4937C10.8154 26.5848 11.9669 25.5795 12.0578 24.2495C12.0578 24.2495 12.2952 20.6477 13.5627 17.7676C13.8446 17.1267 14.1765 16.5219 14.5921 16.0352C14.9656 15.5973 15.4049 15.2482 15.9993 15.2482C16.5937 15.2482 17.033 15.5973 17.4071 16.0352C17.8227 16.5219 18.1546 17.1267 18.4366 17.7676C19.704 20.6471 19.9414 24.2495 19.9414 24.2495C20.0329 25.5795 21.1844 26.5848 22.5117 26.4937C23.5369 26.4233 24.3692 25.7183 24.6524 24.7882L29.8815 8.66231C30.2928 7.39467 29.5989 6.03041 28.3339 5.61887C27.0689 5.20672 25.7075 5.90199 25.2968 7.16963L22.6392 15.3656Z" fill="url(#paint19_radial_631_1233)"/>
<defs>
<linearGradient id="paint0_linear_631_1233" x1="36.0818" y1="-8.31985" x2="24.903" y2="26.461" gradientUnits="userSpaceOnUse">
<stop stop-color="#4A4EFA"/>
<stop offset="0.726726" stop-color="#E63CFE"/>
</linearGradient>
<linearGradient id="paint1_linear_631_1233" x1="22.6872" y1="15.2229" x2="26.6247" y2="16.4718" gradientUnits="userSpaceOnUse">
<stop offset="0.320118" stop-color="#4A4EFA"/>
<stop offset="1" stop-color="#4A4EFA" stop-opacity="0"/>
</linearGradient>
<linearGradient id="paint2_linear_631_1233" x1="23.389" y1="12.9298" x2="25.8615" y2="13.7827" gradientUnits="userSpaceOnUse">
<stop stop-color="#39FBBB"/>
<stop offset="1" stop-color="#39FBBB" stop-opacity="0"/>
</linearGradient>
<linearGradient id="paint3_linear_631_1233" x1="31.3721" y1="2.44256" x2="29.5147" y2="8.52484" gradientUnits="userSpaceOnUse">
<stop offset="0.241026" stop-color="#4A4EFA"/>
<stop offset="1" stop-color="#4A4EFA" stop-opacity="0"/>
</linearGradient>
<radialGradient id="paint4_radial_631_1233" cx="0" cy="0" r="1" gradientUnits="userSpaceOnUse" gradientTransform="translate(22.6261 15.3758) rotate(77.8409) scale(11.0094 2.66389)">
<stop stop-color="#6F15A9" stop-opacity="0.9"/>
<stop offset="0.559734" stop-color="#6F15A9" stop-opacity="0"/>
</radialGradient>
<radialGradient id="paint5_radial_631_1233" cx="0" cy="0" r="1" gradientUnits="userSpaceOnUse" gradientTransform="translate(24.4998 9.49991) rotate(80.9807) scale(10.6313 2.34073)">
<stop offset="0.376913" stop-color="white"/>
<stop offset="1" stop-color="white" stop-opacity="0"/>
</radialGradient>
<radialGradient id="paint6_radial_631_1233" cx="0" cy="0" r="1" gradientUnits="userSpaceOnUse" gradientTransform="translate(14.5709 17.73) rotate(-72.5086) scale(14.6181 13.6126)">
<stop stop-color="#39FBBB" stop-opacity="0.5"/>
<stop offset="0.445109" stop-color="#39FBBB"/>
<stop offset="0.681799" stop-color="#39FBBB" stop-opacity="0"/>
</radialGradient>
<radialGradient id="paint7_radial_631_1233" cx="0" cy="0" r="1" gradientUnits="userSpaceOnUse" gradientTransform="translate(30.9556 25.1292) rotate(-122.63) scale(26.5389 6.45653)">
<stop stop-color="#E63CFE"/>
<stop offset="1" stop-color="#E63CFE" stop-opacity="0"/>
</radialGradient>
<radialGradient id="paint8_radial_631_1233" cx="0" cy="0" r="1" gradientUnits="userSpaceOnUse" gradientTransform="translate(15.8332 21.1664) rotate(-90) scale(9.83322 8.84905)">
<stop offset="0.571854" stop-color="#4A4EFA"/>
<stop offset="1" stop-color="#4A4EFA" stop-opacity="0"/>
</radialGradient>
<radialGradient id="paint9_radial_631_1233" cx="0" cy="0" r="1" gradientUnits="userSpaceOnUse" gradientTransform="translate(10.8791 26.4745) rotate(-66.5602) scale(13.7299 5.10534)">
<stop offset="0.590589" stop-color="#E63CFE"/>
<stop offset="1" stop-color="#E63CFE" stop-opacity="0"/>
</radialGradient>
<radialGradient id="paint10_radial_631_1233" cx="0" cy="0" r="1" gradientUnits="userSpaceOnUse" gradientTransform="translate(9.3332 15.3331) rotate(72.0721) scale(5.95579 5.94589)">
<stop stop-color="#6F15A9"/>
<stop offset="1" stop-color="#6F15A9" stop-opacity="0"/>
</radialGradient>
<radialGradient id="paint11_radial_631_1233" cx="0" cy="0" r="1" gradientUnits="userSpaceOnUse" gradientTransform="translate(15.9998 15.3331) rotate(170.134) scale(7.78166 10.6918)">
<stop offset="0.652093" stop-color="white"/>
<stop offset="0.870875" stop-color="white" stop-opacity="0"/>
</radialGradient>
<linearGradient id="paint12_linear_631_1233" x1="1.1763" y1="6.50903" x2="7.94481" y2="27.567" gradientUnits="userSpaceOnUse">
<stop offset="0.169527" stop-color="#E63CFE"/>
<stop offset="0.591641" stop-color="#FFAE3C"/>
</linearGradient>
<linearGradient id="paint13_linear_631_1233" x1="8.68215" y1="13.205" x2="4.07315" y2="14.667" gradientUnits="userSpaceOnUse">
<stop offset="0.2694" stop-color="#4A4EFA"/>
<stop offset="1" stop-color="#4A4EFA" stop-opacity="0"/>
</linearGradient>
<linearGradient id="paint14_linear_631_1233" x1="10.7264" y1="16.0179" x2="8.10158" y2="16.7793" gradientUnits="userSpaceOnUse">
<stop stop-color="#E63CFE"/>
<stop offset="1" stop-color="#E63CFE" stop-opacity="0"/>
</linearGradient>
<linearGradient id="paint15_linear_631_1233" x1="7.67527" y1="26.7803" x2="4.46052" y2="19.7531" gradientUnits="userSpaceOnUse">
<stop offset="0.372372" stop-color="#FFAE3C"/>
<stop offset="1" stop-color="#FFAE3C" stop-opacity="0"/>
</linearGradient>
<linearGradient id="paint16_linear_631_1233" x1="4.25798" y1="3.51268" x2="5.45243" y2="7.27198" gradientUnits="userSpaceOnUse">
<stop stop-color="#E63CFE"/>
<stop offset="1" stop-color="#E63CFE" stop-opacity="0"/>
</linearGradient>
<radialGradient id="paint17_radial_631_1233" cx="0" cy="0" r="1" gradientUnits="userSpaceOnUse" gradientTransform="translate(11.9778 26.4746) rotate(-90) scale(20.9745 15.4748)">
<stop offset="0.262321" stop-color="#FFAE3C"/>
<stop offset="0.526813" stop-color="#FFAE3C" stop-opacity="0"/>
</radialGradient>
<radialGradient id="paint18_radial_631_1233" cx="0" cy="0" r="1" gradientUnits="userSpaceOnUse" gradientTransform="translate(25.5859 26.4746) rotate(-90) scale(11.8325 11.808)">
<stop offset="0.283277" stop-color="#E63CFE"/>
<stop offset="0.856787" stop-color="#E63CFE" stop-opacity="0"/>
</radialGradient>
<radialGradient id="paint19_radial_631_1233" cx="0" cy="0" r="1" gradientUnits="userSpaceOnUse" gradientTransform="translate(18.2534 26.4746) rotate(-97.9917) scale(16.2402 6.40404)">
<stop offset="0.25103" stop-color="#FFAE3C"/>
<stop offset="0.656188" stop-color="#FFAE3C" stop-opacity="0"/>
</radialGradient>
</defs>
</svg>
