<svg width="280" height="210" viewBox="0 0 280 210" fill="none" xmlns="http://www.w3.org/2000/svg">
<path fill-rule="evenodd" clip-rule="evenodd" d="M226.387 193.31L278.812 31.6283C282.925 18.9518 275.987 5.30913 263.337 1.1937C250.687 -2.92173 237.072 4.02497 232.966 16.7015L180.541 178.377C176.428 191.054 183.366 204.697 196.016 208.812C208.666 212.934 222.28 205.987 226.387 193.31Z" fill="url(#paint0_linear_1584_14573)"/>
<path fill-rule="evenodd" clip-rule="evenodd" d="M226.387 193.31L278.812 31.6283C282.925 18.9518 275.987 5.30913 263.337 1.1937C250.687 -2.92173 237.072 4.02497 232.966 16.7015L180.541 178.377C176.428 191.054 183.366 204.697 196.016 208.812C208.666 212.934 222.28 205.987 226.387 193.31Z" fill="url(#paint1_linear_1584_14573)"/>
<path fill-rule="evenodd" clip-rule="evenodd" d="M226.387 193.31L278.812 31.6283C282.925 18.9518 275.987 5.30913 263.337 1.1937C250.687 -2.92173 237.072 4.02497 232.966 16.7015L180.541 178.377C176.428 191.054 183.366 204.697 196.016 208.812C208.666 212.934 222.28 205.987 226.387 193.31Z" fill="url(#paint2_linear_1584_14573)" fill-opacity="0.8"/>
<path fill-rule="evenodd" clip-rule="evenodd" d="M226.387 193.31L278.812 31.6283C282.925 18.9518 275.987 5.30913 263.337 1.1937C250.687 -2.92173 237.072 4.02497 232.966 16.7015L180.541 178.377C176.428 191.054 183.366 204.697 196.016 208.812C208.666 212.934 222.28 205.987 226.387 193.31Z" fill="url(#paint3_radial_1584_14573)"/>
<path fill-rule="evenodd" clip-rule="evenodd" d="M226.387 193.31L278.812 31.6283C282.925 18.9518 275.987 5.30913 263.337 1.1937C250.687 -2.92173 237.072 4.02497 232.966 16.7015L180.541 178.377C176.428 191.054 183.366 204.697 196.016 208.812C208.666 212.934 222.28 205.987 226.387 193.31Z" fill="url(#paint4_radial_1584_14573)"/>
<path fill-rule="evenodd" clip-rule="evenodd" d="M226.387 193.31L278.812 31.6283C282.925 18.9518 275.987 5.30913 263.337 1.1937C250.687 -2.92173 237.072 4.02497 232.966 16.7015L180.541 178.377C176.428 191.054 183.366 204.697 196.016 208.812C208.666 212.934 222.28 205.987 226.387 193.31Z" fill="url(#paint5_radial_1584_14573)"/>
<path fill-rule="evenodd" clip-rule="evenodd" d="M139.991 97.4807C145.941 97.4807 150.329 100.972 154.069 105.351C158.225 110.224 161.545 116.266 164.364 122.681C177.038 151.477 179.412 187.5 179.412 187.5C180.322 200.801 191.837 210.854 205.109 209.943C218.382 209.032 228.414 197.486 227.504 184.192C227.504 184.192 224.319 139.198 208.471 103.186C194.882 72.305 171.87 49.1718 139.998 49.1718C108.125 49.1718 85.1136 72.305 71.5237 103.186C55.67 139.198 52.4907 184.192 52.4907 184.192C51.5815 197.492 61.6136 209.032 74.8861 209.943C88.1586 210.854 99.6736 200.801 100.583 187.5C100.583 187.5 102.957 151.483 115.631 122.681C118.45 116.272 121.77 110.224 125.926 105.351C129.66 100.972 134.048 97.4807 139.991 97.4807Z" fill="#E63CFE"/>
<path fill-rule="evenodd" clip-rule="evenodd" d="M139.991 97.4807C145.941 97.4807 150.329 100.972 154.069 105.351C158.225 110.224 161.545 116.266 164.364 122.681C177.038 151.477 179.412 187.5 179.412 187.5C180.322 200.801 191.837 210.854 205.109 209.943C218.382 209.032 228.414 197.486 227.504 184.192C227.504 184.192 224.319 139.198 208.471 103.186C194.882 72.305 171.87 49.1718 139.998 49.1718C108.125 49.1718 85.1136 72.305 71.5237 103.186C55.67 139.198 52.4907 184.192 52.4907 184.192C51.5815 197.492 61.6136 209.032 74.8861 209.943C88.1586 210.854 99.6736 200.801 100.583 187.5C100.583 187.5 102.957 151.483 115.631 122.681C118.45 116.272 121.77 110.224 125.926 105.351C129.66 100.972 134.048 97.4807 139.991 97.4807Z" fill="url(#paint6_radial_1584_14573)"/>
<path fill-rule="evenodd" clip-rule="evenodd" d="M139.991 97.4807C145.941 97.4807 150.329 100.972 154.069 105.351C158.225 110.224 161.545 116.266 164.364 122.681C177.038 151.477 179.412 187.5 179.412 187.5C180.322 200.801 191.837 210.854 205.109 209.943C218.382 209.032 228.414 197.486 227.504 184.192C227.504 184.192 224.319 139.198 208.471 103.186C194.882 72.305 171.87 49.1718 139.998 49.1718C108.125 49.1718 85.1136 72.305 71.5237 103.186C55.67 139.198 52.4907 184.192 52.4907 184.192C51.5815 197.492 61.6136 209.032 74.8861 209.943C88.1586 210.854 99.6736 200.801 100.583 187.5C100.583 187.5 102.957 151.483 115.631 122.681C118.45 116.272 121.77 110.224 125.926 105.351C129.66 100.972 134.048 97.4807 139.991 97.4807Z" fill="url(#paint7_radial_1584_14573)"/>
<path fill-rule="evenodd" clip-rule="evenodd" d="M139.991 97.4807C145.941 97.4807 150.329 100.972 154.069 105.351C158.225 110.224 161.545 116.266 164.364 122.681C177.038 151.477 179.412 187.5 179.412 187.5C180.322 200.801 191.837 210.854 205.109 209.943C218.382 209.032 228.414 197.486 227.504 184.192C227.504 184.192 224.319 139.198 208.471 103.186C194.882 72.305 171.87 49.1718 139.998 49.1718C108.125 49.1718 85.1136 72.305 71.5237 103.186C55.67 139.198 52.4907 184.192 52.4907 184.192C51.5815 197.492 61.6136 209.032 74.8861 209.943C88.1586 210.854 99.6736 200.801 100.583 187.5C100.583 187.5 102.957 151.483 115.631 122.681C118.45 116.272 121.77 110.224 125.926 105.351C129.66 100.972 134.048 97.4807 139.991 97.4807Z" fill="url(#paint8_radial_1584_14573)"/>
<path fill-rule="evenodd" clip-rule="evenodd" d="M139.991 97.4807C145.941 97.4807 150.329 100.972 154.069 105.351C158.225 110.224 161.545 116.266 164.364 122.681C177.038 151.477 179.412 187.5 179.412 187.5C180.322 200.801 191.837 210.854 205.109 209.943C218.382 209.032 228.414 197.486 227.504 184.192C227.504 184.192 224.319 139.198 208.471 103.186C194.882 72.305 171.87 49.1718 139.998 49.1718C108.125 49.1718 85.1136 72.305 71.5237 103.186C55.67 139.198 52.4907 184.192 52.4907 184.192C51.5815 197.492 61.6136 209.032 74.8861 209.943C88.1586 210.854 99.6736 200.801 100.583 187.5C100.583 187.5 102.957 151.483 115.631 122.681C118.45 116.272 121.77 110.224 125.926 105.351C129.66 100.972 134.048 97.4807 139.991 97.4807Z" fill="url(#paint9_radial_1584_14573)"/>
<path fill-rule="evenodd" clip-rule="evenodd" d="M139.991 97.4807C145.941 97.4807 150.329 100.972 154.069 105.351C158.225 110.224 161.545 116.266 164.364 122.681C177.038 151.477 179.412 187.5 179.412 187.5C180.322 200.801 191.837 210.854 205.109 209.943C218.382 209.032 228.414 197.486 227.504 184.192C227.504 184.192 224.319 139.198 208.471 103.186C194.882 72.305 171.87 49.1718 139.998 49.1718C108.125 49.1718 85.1136 72.305 71.5237 103.186C55.67 139.198 52.4907 184.192 52.4907 184.192C51.5815 197.492 61.6136 209.032 74.8861 209.943C88.1586 210.854 99.6736 200.801 100.583 187.5C100.583 187.5 102.957 151.483 115.631 122.681C118.45 116.272 121.77 110.224 125.926 105.351C129.66 100.972 134.048 97.4807 139.991 97.4807Z" fill="url(#paint10_radial_1584_14573)"/>
<path fill-rule="evenodd" clip-rule="evenodd" d="M139.991 97.4807C145.941 97.4807 150.329 100.972 154.069 105.351C158.225 110.224 161.545 116.266 164.364 122.681C177.038 151.477 179.412 187.5 179.412 187.5C180.322 200.801 191.837 210.854 205.109 209.943C218.382 209.032 228.414 197.486 227.504 184.192C227.504 184.192 224.319 139.198 208.471 103.186C194.882 72.305 171.87 49.1718 139.998 49.1718C108.125 49.1718 85.1136 72.305 71.5237 103.186C55.67 139.198 52.4907 184.192 52.4907 184.192C51.5815 197.492 61.6136 209.032 74.8861 209.943C88.1586 210.854 99.6736 200.801 100.583 187.5C100.583 187.5 102.957 151.483 115.631 122.681C118.45 116.272 121.77 110.224 125.926 105.351C129.66 100.972 134.048 97.4807 139.991 97.4807Z" fill="url(#paint11_radial_1584_14573)"/>
<path fill-rule="evenodd" clip-rule="evenodd" d="M139.991 97.4807C145.941 97.4807 150.329 100.972 154.069 105.351C158.225 110.224 161.545 116.266 164.364 122.681C177.038 151.477 179.412 187.5 179.412 187.5C180.322 200.801 191.837 210.854 205.109 209.943C218.382 209.032 228.414 197.486 227.504 184.192C227.504 184.192 224.319 139.198 208.471 103.186C194.882 72.305 171.87 49.1718 139.998 49.1718C108.125 49.1718 85.1136 72.305 71.5237 103.186C55.67 139.198 52.4907 184.192 52.4907 184.192C51.5815 197.492 61.6136 209.032 74.8861 209.943C88.1586 210.854 99.6736 200.801 100.583 187.5C100.583 187.5 102.957 151.483 115.631 122.681C118.45 116.272 121.77 110.224 125.926 105.351C129.66 100.972 134.048 97.4807 139.991 97.4807Z" fill="url(#paint12_radial_1584_14573)"/>
<path fill-rule="evenodd" clip-rule="evenodd" d="M139.991 97.4807C145.941 97.4807 150.329 100.972 154.069 105.351C158.225 110.224 161.545 116.266 164.364 122.681C177.038 151.477 179.412 187.5 179.412 187.5C180.322 200.801 191.837 210.854 205.109 209.943C218.382 209.032 228.414 197.486 227.504 184.192C227.504 184.192 224.319 139.198 208.471 103.186C194.882 72.305 171.87 49.1718 139.998 49.1718C108.125 49.1718 85.1136 72.305 71.5237 103.186C55.67 139.198 52.4907 184.192 52.4907 184.192C51.5815 197.492 61.6136 209.032 74.8861 209.943C88.1586 210.854 99.6736 200.801 100.583 187.5C100.583 187.5 102.957 151.483 115.631 122.681C118.45 116.272 121.77 110.224 125.926 105.351C129.66 100.972 134.048 97.4807 139.991 97.4807Z" fill="url(#paint13_radial_1584_14573)"/>
<path fill-rule="evenodd" clip-rule="evenodd" d="M99.4563 178.377L47.0315 16.6952C42.9247 4.01874 29.3166 -2.93407 16.6604 1.18747C4.01036 5.30902 -2.92795 18.9456 1.185 31.6221L53.6098 193.304C57.7227 205.981 71.3309 212.933 83.9809 208.812C96.631 204.69 103.569 191.054 99.4563 178.377Z" fill="url(#paint14_linear_1584_14573)"/>
<path fill-rule="evenodd" clip-rule="evenodd" d="M99.4563 178.377L47.0315 16.6952C42.9247 4.01874 29.3166 -2.93407 16.6604 1.18747C4.01036 5.30902 -2.92795 18.9456 1.185 31.6221L53.6098 193.304C57.7227 205.981 71.3309 212.933 83.9809 208.812C96.631 204.69 103.569 191.054 99.4563 178.377Z" fill="url(#paint15_radial_1584_14573)"/>
<path fill-rule="evenodd" clip-rule="evenodd" d="M99.4563 178.377L47.0315 16.6952C42.9247 4.01874 29.3166 -2.93407 16.6604 1.18747C4.01036 5.30902 -2.92795 18.9456 1.185 31.6221L53.6098 193.304C57.7227 205.981 71.3309 212.933 83.9809 208.812C96.631 204.69 103.569 191.054 99.4563 178.377Z" fill="url(#paint16_linear_1584_14573)"/>
<path fill-rule="evenodd" clip-rule="evenodd" d="M99.4563 178.377L47.0315 16.6952C42.9247 4.01874 29.3166 -2.93407 16.6604 1.18747C4.01036 5.30902 -2.92795 18.9456 1.185 31.6221L53.6098 193.304C57.7227 205.981 71.3309 212.933 83.9809 208.812C96.631 204.69 103.569 191.054 99.4563 178.377Z" fill="url(#paint17_radial_1584_14573)"/>
<path fill-rule="evenodd" clip-rule="evenodd" d="M99.4563 178.377L47.0315 16.6952C42.9247 4.01874 29.3166 -2.93407 16.6604 1.18747C4.01036 5.30902 -2.92795 18.9456 1.185 31.6221L53.6098 193.304C57.7227 205.981 71.3309 212.933 83.9809 208.812C96.631 204.69 103.569 191.054 99.4563 178.377Z" fill="url(#paint18_radial_1584_14573)"/>
<defs>
<linearGradient id="paint0_linear_1584_14573" x1="306.852" y1="-52.9631" x2="228.349" y2="200.881" gradientUnits="userSpaceOnUse">
<stop stop-color="#4A4EFA"/>
<stop offset="0.548576" stop-color="#E63CFE"/>
</linearGradient>
<linearGradient id="paint1_linear_1584_14573" x1="208.255" y1="93.3703" x2="252.727" y2="107.766" gradientUnits="userSpaceOnUse">
<stop offset="0.160046" stop-color="#4A4EFA"/>
<stop offset="0.946031" stop-color="#4A4EFA" stop-opacity="0"/>
</linearGradient>
<linearGradient id="paint2_linear_1584_14573" x1="214.994" y1="72.0261" x2="242.937" y2="80.9633" gradientUnits="userSpaceOnUse">
<stop stop-color="#39FBBB"/>
<stop offset="1" stop-color="#39FBBB" stop-opacity="0"/>
</linearGradient>
<radialGradient id="paint3_radial_1584_14573" cx="0" cy="0" r="1" gradientUnits="userSpaceOnUse" gradientTransform="translate(204.669 131.15) rotate(-64.165) scale(145.704 145.704)">
<stop offset="0.832168" stop-color="#4A4EFA" stop-opacity="0"/>
<stop offset="1" stop-color="#4A4EFA" stop-opacity="0.75"/>
</radialGradient>
<radialGradient id="paint4_radial_1584_14573" cx="0" cy="0" r="1" gradientUnits="userSpaceOnUse" gradientTransform="translate(201.844 121.533) scale(32.4845 69.4717)">
<stop offset="0.169047" stop-color="#11417A"/>
<stop offset="0.926198" stop-color="#4069D4" stop-opacity="0"/>
</radialGradient>
<radialGradient id="paint5_radial_1584_14573" cx="0" cy="0" r="1" gradientUnits="userSpaceOnUse" gradientTransform="translate(239.445 210) rotate(-90) scale(107.446 51.4949)">
<stop offset="0.34895" stop-color="#E63CFE"/>
<stop offset="1" stop-color="#E63CFE" stop-opacity="0"/>
</radialGradient>
<radialGradient id="paint6_radial_1584_14573" cx="0" cy="0" r="1" gradientUnits="userSpaceOnUse" gradientTransform="translate(131.828 133.974) rotate(-85.7675) scale(110.701 98.2946)">
<stop stop-color="#39FBBB" stop-opacity="0.5"/>
<stop offset="0.688731" stop-color="#39FBBB"/>
<stop offset="1" stop-color="#39FBBB" stop-opacity="0"/>
</radialGradient>
<radialGradient id="paint7_radial_1584_14573" cx="0" cy="0" r="1" gradientUnits="userSpaceOnUse" gradientTransform="translate(289.553 196.3) rotate(-122.629) scale(265.39 64.5653)">
<stop stop-color="#E63CFE"/>
<stop offset="1" stop-color="#E63CFE" stop-opacity="0"/>
</radialGradient>
<radialGradient id="paint8_radial_1584_14573" cx="0" cy="0" r="1" gradientUnits="userSpaceOnUse" gradientTransform="translate(136.227 168.141) rotate(-85.0198) scale(119.42 102.726)">
<stop offset="0.556793" stop-color="#4A4EFA"/>
<stop offset="0.934777" stop-color="#4A4EFA" stop-opacity="0"/>
</radialGradient>
<radialGradient id="paint9_radial_1584_14573" cx="0" cy="0" r="1" gradientUnits="userSpaceOnUse" gradientTransform="translate(103.844 204.285) rotate(-68.6367) scale(124.713 74.4255)">
<stop offset="0.61345" stop-color="#E63CFE"/>
<stop offset="1" stop-color="#E63CFE" stop-opacity="0"/>
</radialGradient>
<radialGradient id="paint10_radial_1584_14573" cx="0" cy="0" r="1" gradientUnits="userSpaceOnUse" gradientTransform="translate(224.512 119.828) rotate(176.233) scale(154.847 391.453)">
<stop offset="0.813918" stop-color="#4A98D0" stop-opacity="0"/>
<stop offset="0.972647" stop-color="#11417A"/>
</radialGradient>
<radialGradient id="paint11_radial_1584_14573" cx="0" cy="0" r="1" gradientUnits="userSpaceOnUse" gradientTransform="translate(94.5439 210) rotate(-90) scale(110.978 92.081)">
<stop offset="0.457769" stop-color="#FFAE3C"/>
<stop offset="1" stop-color="#FFAE3C" stop-opacity="0"/>
</radialGradient>
<radialGradient id="paint12_radial_1584_14573" cx="0" cy="0" r="1" gradientUnits="userSpaceOnUse" gradientTransform="translate(229.115 210) rotate(-90) scale(100.031 100.031)">
<stop offset="0.191715" stop-color="#E63CFE"/>
<stop offset="1" stop-color="#E63CFE" stop-opacity="0"/>
</radialGradient>
<radialGradient id="paint13_radial_1584_14573" cx="0" cy="0" r="1" gradientUnits="userSpaceOnUse" gradientTransform="translate(170.43 210) rotate(-90) scale(75.2728 35.7561)">
<stop offset="0.173611" stop-color="#FFAE3C"/>
<stop offset="1" stop-color="#FFAE3C" stop-opacity="0"/>
</radialGradient>
<linearGradient id="paint14_linear_1584_14573" x1="-8.23694" y1="10.091" x2="59.4493" y2="220.672" gradientUnits="userSpaceOnUse">
<stop offset="0.169527" stop-color="#E63CFE"/>
<stop offset="0.708644" stop-color="#FFAE3C"/>
</linearGradient>
<radialGradient id="paint15_radial_1584_14573" cx="0" cy="0" r="1" gradientUnits="userSpaceOnUse" gradientTransform="translate(47.173 64.1839) rotate(161.042) scale(33.7707 164.904)">
<stop offset="0.120383" stop-color="#4A4EFA"/>
<stop offset="1" stop-color="#4A4EFA" stop-opacity="0"/>
</radialGradient>
<linearGradient id="paint16_linear_1584_14573" x1="76.8739" y1="108.514" x2="67.3951" y2="111.617" gradientUnits="userSpaceOnUse">
<stop stop-color="#E63CFE" stop-opacity="0.33"/>
<stop offset="1" stop-color="#E63CFE" stop-opacity="0"/>
</linearGradient>
<radialGradient id="paint17_radial_1584_14573" cx="0" cy="0" r="1" gradientUnits="userSpaceOnUse" gradientTransform="translate(100.641 209.999) rotate(-90) scale(108.5 118.529)">
<stop offset="0.465389" stop-color="#FFAE3C"/>
<stop offset="0.92565" stop-color="#FFAE3C" stop-opacity="0"/>
</radialGradient>
<radialGradient id="paint18_radial_1584_14573" cx="0" cy="0" r="1" gradientUnits="userSpaceOnUse" gradientTransform="translate(100.641 210) rotate(-90) scale(237.403 237.403)">
<stop offset="0.843756" stop-color="#E63CFE" stop-opacity="0"/>
<stop offset="1" stop-color="#E63CFE"/>
</radialGradient>
</defs>
</svg>
