<?xml version="1.0" encoding="UTF-8"?>
<svg xmlns="http://www.w3.org/2000/svg" xmlns:xlink="http://www.w3.org/1999/xlink" fill="none" height="210" viewBox="0 0 280 210" width="280">
   <linearGradient id="a" gradientUnits="userSpaceOnUse" x1="328.489" x2="259.397" y1="-101.75" y2="227.415">
      <stop offset="0" stop-color="#4a4efa" />
      <stop offset=".625265" stop-color="#e63cfe" />
   </linearGradient>
   <linearGradient id="b" gradientUnits="userSpaceOnUse" x1="193.001" x2="247.46" y1="96.4972" y2="115.178">
      <stop offset=".259242" stop-color="#4a4efa" />
      <stop offset=".961404" stop-color="#4a4efa" stop-opacity="0" />
   </linearGradient>
   <linearGradient id="c" gradientUnits="userSpaceOnUse" x1="202.309" x2="243.057" y1="71.3748" y2="86.0768">
      <stop offset=".252262" stop-color="#39fbbb" />
      <stop offset="1" stop-color="#39fbbb" stop-opacity="0" />
   </linearGradient>
   <linearGradient id="d" gradientUnits="userSpaceOnUse" x1="295.535" x2="286.169" y1="-10.0205" y2="31.4233">
      <stop offset="0" stop-color="#4a4efa" />
      <stop offset=".933465" stop-color="#4a4efa" stop-opacity="0" />
   </linearGradient>
   <radialGradient id="e" cx="0" cy="0" gradientTransform="matrix(17.78802941 154.63325134 -39.50418462 4.54431108 205.462 105.007)" gradientUnits="userSpaceOnUse" r="1">
      <stop offset="0" stop-color="#6f15a9" stop-opacity=".9" />
      <stop offset=".613343" stop-color="#6f15a9" stop-opacity="0" />
   </radialGradient>
   <radialGradient id="f" cx="0" cy="0" gradientTransform="matrix(24.6965244 161.339777 -34.31530863 5.25269634 217.626 .958547)" gradientUnits="userSpaceOnUse" r="1">
      <stop offset=".376913" stop-color="#fff" />
      <stop offset="1" stop-color="#fff" stop-opacity="0" />
   </radialGradient>
   <radialGradient id="g" cx="0" cy="0" gradientTransform="matrix(16.21413612 -128.79641594 99.66534611 12.54683584 130.025 147.074)" gradientUnits="userSpaceOnUse" r="1">
      <stop offset="0" stop-color="#39fbbb" stop-opacity=".5" />
      <stop offset=".70129" stop-color="#39fbbb" />
      <stop offset=".948839" stop-color="#39fbbb" stop-opacity="0" />
   </radialGradient>
   <linearGradient id="h">
      <stop offset="0" stop-color="#e63cfe" />
      <stop offset="1" stop-color="#e63cfe" stop-opacity="0" />
   </linearGradient>
   <radialGradient id="i" cx="0" cy="0" gradientTransform="matrix(-159.54108428 -251.31895183 60.92248578 -38.67451844 296.764 204.529)" gradientUnits="userSpaceOnUse" r="1" xlink:href="#h" />
   <radialGradient id="j" cx="0" cy="0" gradientTransform="matrix(0 -115.84 97.1865 0 136.481 174.605)" gradientUnits="userSpaceOnUse" r="1">
      <stop offset=".63962" stop-color="#4a4efa" />
      <stop offset="1" stop-color="#4a4efa" stop-opacity="0" />
   </radialGradient>
   <radialGradient id="k" cx="0" cy="0" gradientTransform="matrix(49.0708512 -148.07912603 59.66678081 19.77253514 91.5691 229.51)" gradientUnits="userSpaceOnUse" r="1">
      <stop offset=".632445" stop-color="#e63cfe" />
      <stop offset="1" stop-color="#e63cfe" stop-opacity="0" />
   </radialGradient>
   <radialGradient id="l" cx="0" cy="0" gradientTransform="matrix(23.39305835 71.28832743 -44.30507733 14.53858292 71.244 106.816)" gradientUnits="userSpaceOnUse" r="1">
      <stop offset="0" stop-color="#6f15a9" />
      <stop offset="1" stop-color="#00127f" stop-opacity="0" />
   </radialGradient>
   <radialGradient id="m" cx="0" cy="0" gradientTransform="matrix(-82.6493916 6.80663507 -9.19195974 -111.61313524 154.389 115.414)" gradientUnits="userSpaceOnUse" r="1">
      <stop offset=".758087" stop-color="#fff" />
      <stop offset="1" stop-color="#fff" stop-opacity="0" />
   </radialGradient>
   <linearGradient id="n" gradientUnits="userSpaceOnUse" x1="-18.9485" x2="55.0932" y1="1.03894" y2="231.932">
      <stop offset=".169527" stop-color="#e63cfe" />
      <stop offset=".591641" stop-color="#ffae3c" />
   </linearGradient>
   <linearGradient id="o" gradientUnits="userSpaceOnUse" x1="63.5059" x2="20.2549" y1="74.4253" y2="88.8153">
      <stop offset=".321315" stop-color="#4a4efa" />
      <stop offset="1" stop-color="#4a4efa" stop-opacity="0" />
   </linearGradient>
   <linearGradient id="p" gradientUnits="userSpaceOnUse" x1="82.4966" x2="64.1407" xlink:href="#h" y1="106.838" y2="112.322" />
   <linearGradient id="q" gradientUnits="userSpaceOnUse" x1="52.445" x2="17.2654" y1="223.209" y2="146.13">
      <stop offset=".372372" stop-color="#ffae3c" />
      <stop offset="1" stop-color="#ffae3c" stop-opacity="0" />
   </linearGradient>
   <linearGradient id="r" gradientUnits="userSpaceOnUse" x1="20.4192" x2="34.6605" xlink:href="#h" y1="-10.0205" y2="23.3405" />
   <radialGradient id="s" cx="0" cy="0" gradientTransform="matrix(0 -229.783 165.804 0 96.9015 219.762)" gradientUnits="userSpaceOnUse" r="1">
      <stop offset=".262321" stop-color="#ffae3c" />
      <stop offset=".526813" stop-color="#ffae3c" stop-opacity="0" />
   </radialGradient>
   <radialGradient id="t" cx="0" cy="0" gradientTransform="matrix(0 -129.629 126.516 0 242.706 219.762)" gradientUnits="userSpaceOnUse" r="1">
      <stop offset=".283277" stop-color="#e63cfe" />
      <stop offset=".856787" stop-color="#e63cfe" stop-opacity="0" />
   </radialGradient>
   <radialGradient id="u" cx="0" cy="0" gradientTransform="matrix(-24.19189644 -176.18890178 68.00682372 -9.33778473 164.141 219.762)" gradientUnits="userSpaceOnUse" r="1">
      <stop offset=".25103" stop-color="#ffae3c" />
      <stop offset=".656188" stop-color="#ffae3c" stop-opacity="0" />
   </radialGradient>
   <mask id="v" height="210" maskUnits="userSpaceOnUse" width="280" x="0" y="0">
      <path clip-rule="evenodd" d="m73.7092 98.7685-26.6377-82.0823c-4.0991-12.70302-17.696-19.60465-30.3931-15.50368-12.69707 4.10096-19.5955 17.80418-15.49643 30.40718l52.38803 161.7383c.1762.546.4295 1.041.7528 1.487 3.3243 8.339 11.1801 14.469 20.7421 15.117 13.2969.9 24.7943-9.102 25.6941-22.406 0 0 2.399-36.008 14.997-64.815 2.799-6.401 6.098-12.503 10.297-17.304 3.689-4.389 8.074-7.8822 14.047-7.9018 5.873.0196 10.258 3.5128 14.047 7.9018 4.099 4.901 7.498 10.903 10.297 17.304 12.698 28.807 15.097 64.815 15.097 64.815.9 13.304 12.397 23.406 25.694 22.406 10.761-.729 19.362-8.467 21.774-18.39l51.809-159.9523c4.099-12.703-2.799-26.30622-15.496-30.40718-12.598-4.10097-26.294 2.80066-30.393 15.50368l-26.487 81.7734c-13.815-28.4964-36.054-49.2659-66.292-49.2659-30.347 0-52.6372 20.9197-66.4408 49.5748zm66.3908-1.2633-.05-.0001h.1z" fill="#000" fill-rule="evenodd" />
   </mask>
   <g mask="url(#v)">
      <g clip-rule="evenodd" fill-rule="evenodd">
         <path d="m156.5 220.034 74.6-230.0545h58.9v39.5093l-61.8 190.5452z" fill="url(#a)" />
         <path d="m156.5 220.034 74.6-230.0545h58.9v39.5093l-61.8 190.5452z" fill="url(#b)" />
         <path d="m156.5 220.034 74.6-230.0545h58.9v39.5093l-61.8 190.5452z" fill="url(#c)" fill-opacity=".8" />
         <path d="m156.5 220.034 74.6-230.0545h58.9v39.5093l-61.8 190.5452z" fill="url(#d)" />
         <path d="m156.5 220.034 74.6-230.0545 58.9 39.5093-61.8 190.5452z" fill="url(#e)" />
         <path d="m156.5 220.034 74.6-230.0545 58.9 39.5093-61.8 190.5452z" fill="url(#f)" />
         <path d="m226.5 219.934h-51.4c-3.6-31.208-15-112.527-35-112.527-21.7 0-31.8 90.121-34 112.527h-73.7001c3.2-38.909 20.8-180.8429 107.7001-180.8429 25.2 0 47.1 12.4029 63.7 35.3083l2.645 24.0606s1.555 3.346 2.155 4.646c15.9 36.009 19 81.019 19 81.019.2 3.201-.2 6.302-1.1 9.102z" fill="#e63cfe" />
         <path d="m226.5 219.934h-51.4c-3.6-31.208-15-112.527-35-112.527-21.7 0-31.8 90.121-34 112.527h-73.7001c3.2-38.909 20.8-180.8429 107.7001-180.8429 25.2 0 47.1 12.4029 63.7 35.3083l2.645 24.0606s1.555 3.346 2.155 4.646c15.9 36.009 19 81.019 19 81.019.2 3.201-.2 6.302-1.1 9.102z" fill="url(#g)" />
         <path d="m226.5 219.934h-51.4c-3.6-31.208-15-112.527-35-112.527-21.7 0-31.8 90.121-34 112.527h-73.7001c3.2-38.909 20.8-180.8429 107.7001-180.8429 25.2 0 47.1 12.4029 63.7 35.3083l2.645 24.0606s1.555 3.346 2.155 4.646c15.9 36.009 19 81.019 19 81.019.2 3.201-.2 6.302-1.1 9.102z" fill="url(#i)" />
         <path d="m226.5 219.934h-51.4c-3.6-31.208-15-112.527-35-112.527-21.7 0-31.8 90.121-34 112.527h-73.7001c3.2-38.909 20.8-180.8429 107.7001-180.8429 25.2 0 47.1 12.4029 63.7 35.3083l2.645 24.0606s1.555 3.346 2.155 4.646c15.9 36.009 19 81.019 19 81.019.2 3.201-.2 6.302-1.1 9.102z" fill="url(#j)" />
         <path d="m226.5 219.934h-51.4c-3.6-31.208-15-112.527-35-112.527-21.7 0-31.8 90.121-34 112.527h-73.7001c3.2-38.909 20.8-180.8429 107.7001-180.8429 25.2 0 47.1 12.4029 63.7 35.3083l2.645 24.0606s1.555 3.346 2.155 4.646c15.9 36.009 19 81.019 19 81.019.2 3.201-.2 6.302-1.1 9.102z" fill="url(#k)" />
         <path d="m140.1 107.407c-21.7 0-31.8 90.121-34 112.527h-73.7001c3.2-38.909 20.8-180.8429 107.7001-180.8429 111.75 0 95.397 68.3159 0 68.3159z" fill="url(#l)" />
         <path d="m140.1 107.407c-21.7 0-31.8 90.121-34 112.527h-73.7001c3.2-38.909 20.8-180.8429 107.7001-180.8429 111.75 0 95.397 68.3159 0 68.3159z" fill="url(#m)" />
         <path d="m-9.8999 29.4888v-39.5093h58.9l27.4 84.5199-2.6931 24.2692 25.7931 79.6554c.9999 3.001 1.2999 6.201 1.0999 9.202 0 0-1.8999 28.207-13.3999 32.508h-35.4z" fill="url(#n)" />
         <path d="m-9.8999 29.4888v-39.5093h58.9l27.4 84.5199-2.6931 24.2692 25.7931 79.6554c.9999 3.001 1.2999 6.201 1.0999 9.202 0 0-1.8999 28.207-13.3999 32.508h-35.4z" fill="url(#o)" />
         <path d="m-9.8999 29.4888v-39.5093h58.9l27.4 84.5199-2.6931 24.2692 25.7931 79.6554c.9999 3.001 1.2999 6.201 1.0999 9.202 0 0-1.8999 28.207-13.3999 32.508h-35.4z" fill="url(#p)" />
         <path d="m-9.8999 29.4888v-39.5093h58.9l27.4 84.5199-2.6931 24.2692 25.7931 79.6554c.9999 3.001 1.2999 6.201 1.0999 9.202 0 0-1.8999 28.207-13.3999 32.508h-35.4z" fill="url(#q)" />
         <path d="m-9.8999 29.4888v-39.5093h58.9l27.4 84.5199-2.6931 24.2692 25.7931 79.6554c.9999 3.001 1.2999 6.201 1.0999 9.202 0 0-1.8999 28.207-13.3999 32.508h-35.4z" fill="url(#r)" />
      </g>
      <path d="m290-10.0205h-300v230.0545h300z" fill="url(#s)" />
      <path d="m290-10.0205h-300v230.0545h300z" fill="url(#t)" />
      <path d="m290-10.0205h-300v230.0545h300z" fill="url(#u)" />
   </g>
</svg>
